<?xml version="1.0" encoding="UTF-8"?>
<svg version="1.1" xmlns="http://www.w3.org/2000/svg" width="776" height="185">
<path d="M0 0 C7.59 0 15.18 0 23 0 C24.14399316 4.19804631 25.28486478 8.39669255 26.41796875 12.59765625 C26.80418527 14.02587977 27.1921898 15.45362104 27.58203125 16.88085938 C28.14275752 18.93494847 28.69698571 20.99069811 29.25 23.046875 C29.58515625 24.28276367 29.9203125 25.51865234 30.265625 26.79199219 C31 30 31 30 31 34 C31.66 34 32.32 34 33 34 C33.10231934 33.42459473 33.20463867 32.84918945 33.31005859 32.25634766 C34.64400622 25.15367394 36.55654602 18.29507164 38.625 11.375 C38.94984375 10.27542969 39.2746875 9.17585938 39.609375 8.04296875 C40.40235663 5.36082501 41.20062832 2.68024623 42 0 C49.26 0 56.52 0 64 0 C65.10621944 3.60354771 66.21001896 7.20780847 67.3125 10.8125 C67.7755957 12.31973633 67.7755957 12.31973633 68.24804688 13.85742188 C68.55419922 14.85966797 68.86035156 15.86191406 69.17578125 16.89453125 C69.45333252 17.80050049 69.73088379 18.70646973 70.0168457 19.63989258 C71.41180913 24.40743209 72.69298283 29.20760373 74 34 C76.97 22.78 79.94 11.56 83 0 C90.59 0 98.18 0 106 0 C105.29381225 4.94331423 104.50500687 9.17667976 103.15820312 13.91333008 C102.88241676 14.89027832 102.88241676 14.89027832 102.60105896 15.88696289 C101.99887496 18.01576769 101.39020822 20.14265532 100.78125 22.26953125 C100.35874906 23.75679503 99.93659466 25.24415729 99.51477051 26.73161316 C98.63325857 29.83644929 97.74873315 32.94040473 96.86181641 36.04370117 C95.72407016 40.02494482 94.59213107 44.00780988 93.46219635 47.99127674 C92.59226886 51.05686817 91.72020699 54.12184888 90.84739685 57.18662071 C90.42910216 58.65574006 90.01126385 60.12498943 89.59388733 61.59436989 C89.01189487 63.6413823 88.42725252 65.68761838 87.84179688 67.73364258 C87.50950073 68.89833572 87.17720459 70.06302887 86.83483887 71.26301575 C86 74 86 74 85 76 C77.74 76 70.48 76 63 76 C61.71462068 71.49862203 60.43165234 66.99669976 59.15478516 62.49291992 C58.71967316 60.96094282 58.28315853 59.42936337 57.84521484 57.89819336 C57.21603275 55.69748276 56.5919058 53.49539224 55.96875 51.29296875 C55.77188599 50.60849167 55.57502197 49.92401459 55.37219238 49.21879578 C54.57184808 46.37413362 54 43.97220924 54 41 C53.34 41 52.68 41 52 41 C51.87310791 42.01457275 51.74621582 43.02914551 51.61547852 44.07446289 C51.03473026 47.77848955 50.19669957 51.21136814 49.15234375 54.80859375 C48.79462891 56.04931641 48.43691406 57.29003906 48.06835938 58.56835938 C47.69150862 59.85810283 47.31455423 61.14781601 46.9375 62.4375 C46.55621014 63.75443273 46.1753469 65.07148906 45.79492188 66.38867188 C44.86747021 69.59366307 43.93429765 72.7969978 43 76 C35.74 76 28.48 76 21 76 C18.8114499 68.49716877 16.62442448 60.99389529 14.4387207 53.49023438 C13.69738702 50.94548323 12.95541115 48.40092193 12.21313477 45.85644531 C5.10856267 21.50064996 5.10856267 21.50064996 1.98046875 10.3984375 C1.77392166 9.67508209 1.56737457 8.95172668 1.35456848 8.20645142 C0.5619726 5.36552713 0 2.96667035 0 0 Z " fill="#00559E" transform="translate(104,70)"/>
<path d="M0 0 C25.08 0 50.16 0 76 0 C76 7.59 76 15.18 76 23 C58.84 23 41.68 23 24 23 C24 33.89 24 44.78 24 56 C8.625 56.3125 8.625 56.3125 3.77587891 56.38793945 C2.52210449 56.42105225 1.26833008 56.45416504 -0.0234375 56.48828125 C-1.31169434 56.51446533 -2.59995117 56.54064941 -3.92724609 56.56762695 C-5.44825928 56.78165161 -5.44825928 56.78165161 -7 57 C-9.21296761 60.31945142 -9.26466755 61.42372974 -9.31884766 65.29760742 C-9.33871735 66.37850143 -9.35858704 67.45939545 -9.37905884 68.57304382 C-9.39638565 70.32159416 -9.39638565 70.32159416 -9.4140625 72.10546875 C-9.43342865 73.29981033 -9.4527948 74.49415192 -9.4727478 75.72468567 C-9.53260616 79.54555076 -9.57895454 83.36644587 -9.625 87.1875 C-9.66317397 89.77540388 -9.70222535 92.36329499 -9.7421875 94.95117188 C-9.8399668 101.30071536 -9.91948767 107.65011993 -10 114 C-17.92 114 -25.84 114 -34 114 C-34.09077338 106.21932498 -34.16398612 98.43894522 -34.20724869 90.6578846 C-34.22802442 87.04385655 -34.25615513 83.43021305 -34.30175781 79.81640625 C-34.34557814 76.32152463 -34.36921218 72.82701024 -34.37950897 69.33187485 C-34.39037481 67.36558659 -34.42154181 65.39944377 -34.45318604 63.43338013 C-34.45539985 54.49006516 -32.91132072 47.85220119 -28.3125 40.1875 C-19.73274478 32.07151534 -11.82907274 32 0 32 C0 21.44 0 10.88 0 0 Z " fill="#74BA52" transform="translate(520,32)"/>
<path d="M0 0 C7.11516288 6.3503853 10.15672263 13.78361313 12 23 C12 27.95 12 32.9 12 38 C-16.215 38.495 -16.215 38.495 -45 39 C-41.93469632 45.13060735 -40.26146493 47.58197177 -34.125 50.25 C-27.28552751 51.8914734 -21.29195571 50.99276465 -15 48 C-12.61207103 46.40487866 -10.29689727 44.72308136 -8 43 C-5.65459733 44.56759056 -3.32474715 46.15229732 -1 47.75 C-0.33226562 48.1934375 0.33546875 48.636875 1.0234375 49.09375 C1.65507812 49.53203125 2.28671875 49.9703125 2.9375 50.421875 C3.52402344 50.81987305 4.11054688 51.21787109 4.71484375 51.62792969 C6 53 6 53 6 57 C1.99684098 63.7879653 -6.1283178 67.2102489 -13.43359375 69.43359375 C-26.32489314 72.27870549 -41.33753797 71.72616954 -53 65 C-61.8271896 58.29337982 -68.1323816 51.1250938 -70 40 C-71.17934367 26.6767687 -70.47580112 14.52104187 -61.6875 3.77734375 C-45.93634595 -12.81241341 -17.89513936 -13.67722089 0 0 Z M-42.875 16.125 C-45.09906518 18.53818145 -45.09906518 18.53818145 -45 20 C-34.77 20 -24.54 20 -14 20 C-15.98878954 15.02802615 -16.80128862 13.86741265 -21 11 C-29.19560113 8.26813296 -37.12597134 9.46317292 -42.875 16.125 Z " fill="#00559E" transform="translate(464,75)"/>
<path d="M0 0 C1.04220703 -0.01160156 2.08441406 -0.02320312 3.15820312 -0.03515625 C14.19329423 0.00589183 25.14763423 1.70891466 33.5625 9.375 C38.16761276 15.28489471 38.5625 19.99553278 38.5625 27.375 C30.3125 27.375 22.0625 27.375 13.5625 27.375 C12.5725 25.065 11.5825 22.755 10.5625 20.375 C7.43400741 18.81075371 4.11819916 19.19053602 0.6875 19.1875 C-0.39337891 19.16913086 -0.39337891 19.16913086 -1.49609375 19.15039062 C-6.78634025 19.13515805 -6.78634025 19.13515805 -11.4375 21.375 C-11.7675 22.035 -12.0975 22.695 -12.4375 23.375 C-11.76920166 23.50028076 -11.10090332 23.62556152 -10.41235352 23.75463867 C31.56887739 31.69567102 31.56887739 31.69567102 39.5625 41.9375 C41.33944303 48.04574167 41.84988355 54.69761272 39.71875 60.78515625 C34.9253699 69.18976527 27.24411887 73.12128673 18.17578125 75.62109375 C2.27007283 78.93979832 -15.35632998 78.25747839 -29.6796875 70.09765625 C-34.99825495 66.58116751 -37.81939213 62.54575036 -39.4375 56.375 C-39.7675 53.405 -40.0975 50.435 -40.4375 47.375 C-31.8575 47.375 -23.2775 47.375 -14.4375 47.375 C-13.7775 50.015 -13.1175 52.655 -12.4375 55.375 C-8.53007643 58.13789839 -3.57739703 57.7075341 1.0625 57.6875 C2.18205078 57.71166992 2.18205078 57.71166992 3.32421875 57.73632812 C7.86329697 57.74034501 10.91471946 57.37038902 14.5625 54.375 C14.8925 53.385 15.2225 52.395 15.5625 51.375 C13.85320312 51.02888672 13.85320312 51.02888672 12.109375 50.67578125 C3.35900384 48.88368282 -5.37236189 47.00293195 -14.0625 44.9375 C-14.8659082 44.75678955 -15.66931641 44.5760791 -16.49707031 44.38989258 C-24.31096623 42.4866531 -31.99498653 39.40897967 -36.4375 32.375 C-38.32672532 26.70732405 -38.6454325 20.35694406 -36.37890625 14.76171875 C-31.29924518 6.57093735 -24.58078072 3.37825993 -15.51196289 0.99462891 C-10.3382529 -0.04808339 -5.26080641 -0.05834536 0 0 Z " fill="#00559E" transform="translate(294.4375,68.625)"/>
<path d="M0 0 C18.81 0 37.62 0 57 0 C57.495 9.405 57.495 9.405 58 19 C63.05860763 14.0192171 67.97766109 9.02614128 72.58984375 3.62890625 C73.67629098 2.37392427 74.82625655 1.17374345 76 0 C80.34395071 -0.27917421 84.64350967 -0.08542138 89 0 C89 7.59 89 15.18 89 23 C78.44 23 67.88 23 57 23 C57 53.03 57 83.06 57 114 C49.08 114 41.16 114 33 114 C32.79588519 105.43694762 32.63111984 96.8758155 32.53369045 88.31097603 C32.48690574 84.33301876 32.42355983 80.35682509 32.32104492 76.37988281 C32.22255857 72.53473739 32.16930189 68.69127708 32.14610481 64.84496689 C32.12959645 63.38485069 32.09735733 61.92481697 32.04842949 60.4654274 C31.8179768 53.30037092 31.80936461 47.4449001 36.80493164 41.83544922 C38.5193042 40.23975098 40.23367676 38.64405273 42 37 C45.96 32.71 49.92 28.42 54 24 C36.18 23.67 18.36 23.34 0 23 C0 15.41 0 7.82 0 0 Z " fill="#00559D" transform="translate(36,32)"/>
<path d="M0 0 C13.79027495 -0.60616593 25.44575812 1.59780565 36 11 C45.13407148 20.45025088 48.4164013 31.38502194 48.26953125 44.26953125 C47.44633474 55.66304818 42.16064207 65.65099808 33.5390625 73.13671875 C23.95272036 80.17161906 13.84691932 82.92313657 2 82 C-8.99996937 80.14836464 -19.06483154 74.8681983 -26 66 C-33.48362209 54.61037654 -34.26092532 45.43765393 -34 32 C-26.08 32 -18.16 32 -10 32 C-9.87625 34.97 -9.87625 34.97 -9.75 38 C-9.22929544 44.46658773 -8.42329771 49.80431517 -3.53125 54.37109375 C1.24248179 57.62488735 6.40247737 57.87292555 12 57 C16.23119561 55.64054742 18.69502197 53.39099748 21.4375 49.875 C23.66352708 45.38439992 23.77094431 40.89313636 23 36 C21.68951101 32.12743142 19.53098087 29.50375108 16.5625 26.6875 C11.18525913 24.14038591 5.89592581 23.7219501 0 23 C0 15.41 0 7.82 0 0 Z " fill="#75BD51" transform="translate(554,64)"/>
<path d="M0 0 C0 6.6 0 13.2 0 20 C3.63 20 7.26 20 11 20 C11 25.94 11 31.88 11 38 C7.37 38 3.74 38 0 38 C0.33 50.54 0.66 63.08 1 76 C4.96 76 8.92 76 13 76 C13 81.61 13 87.22 13 93 C6.59348142 96.20325929 -4.36374453 95.63983205 -11.13671875 93.7265625 C-16.35717994 91.69091097 -19.59944795 89.05379379 -22 84 C-22.85209287 81.16496344 -23.12242483 78.64504219 -23.11352539 75.69042969 C-23.11344986 74.84986023 -23.11337433 74.00929077 -23.11329651 73.14324951 C-23.10813522 72.24519592 -23.10297394 71.34714233 -23.09765625 70.421875 C-23.0962413 69.4953009 -23.09482635 68.56872681 -23.09336853 67.61407471 C-23.08777824 64.65935008 -23.0752275 61.70470167 -23.0625 58.75 C-23.05748375 56.74479276 -23.05292106 54.73958433 -23.04882812 52.734375 C-23.03781199 47.82288737 -23.020554 42.9114566 -23 38 C-26.3 38 -29.6 38 -33 38 C-33 32.06 -33 26.12 -33 20 C-29.7 20 -26.4 20 -23 20 C-23 16.7 -23 13.4 -23 10 C-17.66666667 7.33333333 -12.33333333 4.66666667 -7 2 C-5.98244629 1.44481689 -5.98244629 1.44481689 -4.94433594 0.87841797 C-3 0 -3 0 0 0 Z " fill="#00559E" transform="translate(376,51)"/>
<path d="M0 0 C0 7.92 0 15.84 0 24 C-2.31 24.33 -4.62 24.66 -7 25 C-9.21296761 28.31945142 -9.26466755 29.42372974 -9.31884766 33.29760742 C-9.33871735 34.37850143 -9.35858704 35.45939545 -9.37905884 36.57304382 C-9.39638565 38.32159416 -9.39638565 38.32159416 -9.4140625 40.10546875 C-9.43342865 41.29981033 -9.4527948 42.49415192 -9.4727478 43.72468567 C-9.53260616 47.54555076 -9.57895454 51.36644587 -9.625 55.1875 C-9.66317397 57.77540388 -9.70222535 60.36329499 -9.7421875 62.95117188 C-9.8399668 69.30071536 -9.91948767 75.65011993 -10 82 C-17.92 82 -25.84 82 -34 82 C-34.09077338 74.21932498 -34.16398612 66.43894522 -34.20724869 58.6578846 C-34.22802442 55.04385655 -34.25615513 51.43021305 -34.30175781 47.81640625 C-34.34557814 44.32152463 -34.36921218 40.82701024 -34.37950897 37.33187485 C-34.39037481 35.36558659 -34.42154181 33.39944377 -34.45318604 31.43338013 C-34.45539985 22.49006516 -32.91132072 15.85220119 -28.3125 8.1875 C-19.70369269 0.04403362 -11.31903369 -0.11319034 0 0 Z " fill="#00559E" transform="translate(520,64)"/>
<path d="M0 0 C7.92 0 15.84 0 24 0 C24 25.08 24 50.16 24 76 C16.08 76 8.16 76 0 76 C0 50.92 0 25.84 0 0 Z " fill="#00559E" transform="translate(220,70)"/>
<path d="M0 0 C3.20815426 0.08226037 4.61647078 0.65242665 7 2.8125 C7.66 3.534375 8.32 4.25625 9 5 C10.65191491 6.35156675 12.31522656 7.68962066 14 9 C13.01 10.32 12.02 11.64 11 13 C10.01 12.34 9.02 11.68 8 11 C7.67 11.33 7.34 11.66 7 12 C4.18443216 12.07230993 1.38207789 11.99623631 -1.43359375 11.9375 C-3.98987685 11.81772784 -3.98987685 11.81772784 -6 13 C-0.39 13.33 5.22 13.66 11 14 C10.96744792 17.61328125 10.93489583 21.2265625 10.90234375 24.83984375 C10.63467451 27.86298403 10.63467451 27.86298403 12 29 C12.07258946 31.18639453 12.08373783 33.37500389 12.0625 35.5625 C12.05347656 36.76003906 12.04445313 37.95757812 12.03515625 39.19140625 C12.02355469 40.11824219 12.01195312 41.04507813 12 42 C10.68 42 9.36 42 8 42 C8 41.34 8 40.68 8 40 C4.7 40 1.4 40 -2 40 C-2 40.66 -2 41.32 -2 42 C-3.32 42 -4.64 42 -6 42 C-6.33 40.68 -6.66 39.36 -7 38 C-7.66 38.99 -8.32 39.98 -9 41 C-10.32 40.34 -11.64 39.68 -13 39 C-12.69255859 37.53240234 -12.69255859 37.53240234 -12.37890625 36.03515625 C-10.93266624 29.03263899 -9.62574472 22.13348978 -9 15 C-9.99 14.67 -10.98 14.34 -12 14 C-12.6875 11.9375 -12.6875 11.9375 -13 10 C-12.31292969 9.52949219 -11.62585938 9.05898437 -10.91796875 8.57421875 C-10.01691406 7.95160156 -9.11585938 7.32898438 -8.1875 6.6875 C-7.29417969 6.07261719 -6.40085937 5.45773438 -5.48046875 4.82421875 C-3.03270468 3.13159178 -3.03270468 3.13159178 -1.328125 1.265625 C-0.88984375 0.84796875 -0.4515625 0.4303125 0 0 Z M1 6 C0.01 7.485 0.01 7.485 -1 9 C0.98 9 2.96 9 5 9 C3.68 8.01 2.36 7.02 1 6 Z M-5 17 C-5 17.66 -5 18.32 -5 19 C-1.04 19 2.92 19 7 19 C7 18.34 7 17.68 7 17 C3.04 17 -0.92 17 -5 17 Z M-5 22 C-5 22.99 -5 23.98 -5 25 C-1.04 25 2.92 25 7 25 C7 24.01 7 23.02 7 22 C3.04 22 -0.92 22 -5 22 Z M-2 32 C-2 33.32 -2 34.64 -2 36 C1.3 36 4.6 36 8 36 C8 34.68 8 33.36 8 32 C4.7 32 1.4 32 -2 32 Z " fill="#00559E" transform="translate(713,96)"/>
<path d="M0 0 C1.65 0 3.3 0 5 0 C5 37.95 5 75.9 5 115 C3.35 115 1.7 115 0 115 C0 77.05 0 39.1 0 0 Z " fill="#00559E" transform="translate(627,31)"/>
<path d="M0 0 C4.98046875 0.09765625 4.98046875 0.09765625 9.9609375 0.1953125 C9.9609375 7.7853125 9.9609375 15.3753125 9.9609375 23.1953125 C-0.5990625 23.1953125 -11.1590625 23.1953125 -22.0390625 23.1953125 C-20.94729419 18.82823925 -20.08356932 17.93216978 -16.9140625 14.9453125 C-13.22255767 11.38333415 -9.78069557 7.72275546 -6.44921875 3.82421875 C-3.3234712 0.21359069 -3.3234712 0.21359069 0 0 Z " fill="#75BD51" transform="translate(115.0390625,31.8046875)"/>
<path d="M0 0 C10.89 0 21.78 0 33 0 C33 0.99 33 1.98 33 3 C28.38 3 23.76 3 19 3 C19 3.66 19 4.32 19 5 C24.61 5 30.22 5 36 5 C36 8.3 36 11.6 36 15 C34.68 15 33.36 15 32 15 C32 12.69 32 10.38 32 8 C31.34 8.33 30.68 8.66 30 9 C30.495 10.485 30.495 10.485 31 12 C29.35 12.66 27.7 13.32 26 14 C28.22189824 16.22189824 30.08482708 16.92598892 33 18 C32.67 19.32 32.34 20.64 32 22 C27.61110675 21.33501617 24.0188515 19.81242323 20 18 C20 16.68 20 15.36 20 14 C19.67 16.31 19.34 18.62 19 21 C17.68 21 16.36 21 15 21 C15 16.71 15 12.42 15 8 C12.69 8.33 10.38 8.66 8 9 C10.475 9.99 10.475 9.99 13 11 C13 13.31 13 15.62 13 18 C11.75539217 18.67667998 10.50403104 19.34094719 9.25 20 C8.55390625 20.37125 7.8578125 20.7425 7.140625 21.125 C5 22 5 22 1 22 C0.67 20.68 0.34 19.36 0 18 C3.96 16.515 3.96 16.515 8 15 C5.1315587 12.89767656 5.1315587 12.89767656 2 12 C2.33 10.68 2.66 9.36 3 8 C2.34 8 1.68 8 1 8 C1 10.31 1 12.62 1 15 C-0.32 15 -1.64 15 -3 15 C-3 11.7 -3 8.4 -3 5 C2.94 5 8.88 5 15 5 C15 4.34 15 3.68 15 3 C10.05 3 5.1 3 0 3 C0 2.01 0 1.02 0 0 Z M19 8 C19.33 9.32 19.66 10.64 20 12 C22.64 11.01 25.28 10.02 28 9 C28 8.67 28 8.34 28 8 C25.03 8 22.06 8 19 8 Z " fill="#00559E" transform="translate(658,97)"/>
<path d="M0 0 C2.88242353 3.05197785 3.98844245 5.14311204 4.26171875 9.359375 C4.11960837 13.81715312 3.35741915 16.64757916 0.125 19.8125 C-3.41741412 22.42384839 -6.37184287 23.02305051 -10.7265625 22.7109375 C-14.1235356 21.98213236 -16.28915651 20.52049672 -18.875 18.25 C-21.42157728 14.05253814 -21.68864572 10.04054673 -20.875 5.25 C-19.16189295 1.9016544 -16.75854919 -0.20076672 -13.5625 -2.1875 C-8.49957814 -3.24718132 -4.42633088 -2.69428836 0 0 Z " fill="#00559E" transform="translate(240.875,41.75)"/>
<path d="M0 0 C10.56 0 21.12 0 32 0 C32.33 10.23 32.66 20.46 33 31 C33.66 30.01 34.32 29.02 35 28 C37.78637633 32.1795645 36.79562512 34.14668677 36 39 C33.525 39.495 33.525 39.495 31 40 C27.44565182 34.5912093 26.87081623 30.22430468 26.90234375 23.82421875 C26.90556641 22.66728516 26.90878906 21.51035156 26.91210938 20.31835938 C26.92467773 18.52108398 26.92467773 18.52108398 26.9375 16.6875 C26.94201172 15.46998047 26.94652344 14.25246094 26.95117188 12.99804688 C26.96293411 9.99867682 26.9808689 6.99933211 27 4 C19.41 4 11.82 4 4 4 C4.11765104 11.11926229 4.11765104 11.11926229 4.27026367 18.23779297 C4.33531226 26.1289567 3.45062765 33.32405852 -1 40 C-2.65 39.34 -4.3 38.68 -6 38 C-5.72285156 37.3709375 -5.44570313 36.741875 -5.16015625 36.09375 C-4.79792969 35.2378125 -4.43570313 34.381875 -4.0625 33.5 C-3.52302734 32.24703125 -3.52302734 32.24703125 -2.97265625 30.96875 C-0.7171913 24.08459994 -0.7563197 16.68446776 -0.4375 9.5 C-0.293125 6.365 -0.14875 3.23 0 0 Z " fill="#00559E" transform="translate(706,40)"/>
<path d="M0 0 C7.26 0 14.52 0 22 0 C22 7.26 22 14.52 22 22 C14.74 22 7.48 22 0 22 C0 14.74 0 7.48 0 0 Z " fill="#000000" transform="translate(521,65)"/>
<path d="M0 0 C9.24 0 18.48 0 28 0 C28 1.32 28 2.64 28 4 C23.05 4 18.1 4 13 4 C13 4.99 13 5.98 13 7 C14.32 7 15.64 7 17 7 C17.33 9.64 17.66 12.28 18 15 C18.99 15 19.98 15 21 15 C21.33 15.66 21.66 16.32 22 17 C22.33 16.01 22.66 15.02 23 14 C21.35 14 19.7 14 18 14 C18 12.68 18 11.36 18 10 C21.3 10 24.6 10 28 10 C27.125 19.625 27.125 19.625 26 23 C27.37492804 26.1668838 27.37492804 26.1668838 29 29 C27.02 29.99 27.02 29.99 25 31 C24.67 30.01 24.34 29.02 24 28 C23.34 28 22.68 28 22 28 C21.7525 28.639375 21.505 29.27875 21.25 29.9375 C20 32 20 32 17.9375 32.6875 C17.298125 32.790625 16.65875 32.89375 16 33 C15.505 33.495 15.505 33.495 15 34 C12.32941149 34.14115161 9.67567762 34.04247107 7 34 C6.67 32.68 6.34 31.36 6 30 C7.98 30 9.96 30 12 30 C11.98839844 29.21496094 11.97679687 28.42992188 11.96484375 27.62109375 C11.91624493 21.96280225 11.98705251 16.57121122 13 11 C10.69 11 8.38 11 6 11 C6.33 9.02 6.66 7.04 7 5 C4.69 4.67 2.38 4.34 0 4 C0 2.68 0 1.36 0 0 Z M17 18 C17 20.97 17 23.94 17 27 C18.32 25.68 19.64 24.36 21 23 C19.68 21.35 18.36 19.7 17 18 Z " fill="#00559E" transform="translate(667,39)"/>
<path d="M0 0 C6.6 0 13.2 0 20 0 C20 1.32 20 2.64 20 4 C17.36 4 14.72 4 12 4 C12 5.32 12 6.64 12 8 C14.64 8 17.28 8 20 8 C19.96519531 9.01320313 19.93039062 10.02640625 19.89453125 11.0703125 C19.86637405 12.4218583 19.83907597 13.77342219 19.8125 15.125 C19.78736328 15.79015625 19.76222656 16.4553125 19.73632812 17.140625 C19.66610975 21.91547416 20.71728223 24.86594419 23 29 C23 29.99 23 30.98 23 32 C21.02 32.495 21.02 32.495 19 33 C18.34 32.01 17.68 31.02 17 30 C15.06218919 29.67738501 15.06218919 29.67738501 12.8671875 29.92578125 C11.65869141 30.00795898 11.65869141 30.00795898 10.42578125 30.09179688 C9.58402344 30.16462891 8.74226562 30.23746094 7.875 30.3125 C7.02550781 30.37373047 6.17601562 30.43496094 5.30078125 30.49804688 C3.19946335 30.65151391 1.09954876 30.82397722 -1 31 C-1.33 29.35 -1.66 27.7 -2 26 C1.3 26 4.6 26 8 26 C8 24.35 8 22.7 8 21 C5.69 21 3.38 21 1 21 C1 16.71 1 12.42 1 8 C3.31 8 5.62 8 8 8 C8 6.68 8 5.36 8 4 C5.36 4 2.72 4 0 4 C0 2.68 0 1.36 0 0 Z M5 12 C5 13.65 5 15.3 5 17 C5.99 17 6.98 17 8 17 C8 15.35 8 13.7 8 12 C7.01 12 6.02 12 5 12 Z M12 12 C12 13.65 12 15.3 12 17 C13.32 17 14.64 17 16 17 C16 15.35 16 13.7 16 12 C14.68 12 13.36 12 12 12 Z M12 21 C12 22.32 12 23.64 12 25 C12.99 25 13.98 25 15 25 C15 23.68 15 22.36 15 21 C14.01 21 13.02 21 12 21 Z " fill="#00559E" transform="translate(711,46)"/>
<path d="M0 0 C1.32 0 2.64 0 4 0 C4 2.64 4 5.28 4 8 C5.65 8 7.3 8 9 8 C9 9.32 9 10.64 9 12 C7.35 12 5.7 12 4 12 C5.32 14.31 6.64 16.62 8 19 C8.33 17.02 8.66 15.04 9 13 C11.64 13 14.28 13 17 13 C17 18.28 17 23.56 17 29 C15.35 29 13.7 29 12 29 C12 29.66 12 30.32 12 31 C11.01 31 10.02 31 9 31 C8.67 28.69 8.34 26.38 8 24 C7.01 24 6.02 24 5 24 C4.67 29.94 4.34 35.88 4 42 C2.68 42 1.36 42 0 42 C-0.33 38.04 -0.66 34.08 -1 30 C-1.99 30.99 -2.98 31.98 -4 33 C-5.43166173 30.17196398 -6.1655308 28.66955086 -5.390625 25.53515625 C-5.01421875 24.71917969 -4.6378125 23.90320313 -4.25 23.0625 C-3.8684375 22.20011719 -3.486875 21.33773437 -3.09375 20.44921875 C-2.7328125 19.64097656 -2.371875 18.83273438 -2 18 C-1.3127513 16.00697876 -0.63484067 14.01032877 0 12 C-1.65 12 -3.3 12 -5 12 C-5 10.68 -5 9.36 -5 8 C-3.35 8 -1.7 8 0 8 C0 5.36 0 2.72 0 0 Z M12 17 C12 19.97 12 22.94 12 26 C12.66 26 13.32 26 14 26 C14 23.03 14 20.06 14 17 C13.34 17 12.68 17 12 17 Z " fill="#00559E" transform="translate(659,38)"/>
<path d="M0 0 C13.53 0 27.06 0 41 0 C41 1.32 41 2.64 41 4 C38.69 4.33 36.38 4.66 34 5 C34.825 5.78375 35.65 6.5675 36.5 7.375 C39 10 39 10 39 12 C37.34385343 12.38218767 35.67542976 12.71395102 34 13 C33.505 12.505 33.505 12.505 33 12 C30.99836123 11.9832207 28.99605136 12.03737459 26.99609375 12.12109375 C25.17368164 12.19360352 25.17368164 12.19360352 23.31445312 12.26757812 C22.03505859 12.32365234 20.75566406 12.37972656 19.4375 12.4375 C17.51260742 12.51581055 17.51260742 12.51581055 15.54882812 12.59570312 C12.36566609 12.7258696 9.18277996 12.86085001 6 13 C5.34 11.35 4.68 9.7 4 8 C5.32 7.01 6.64 6.02 8 5 C5.36 4.67 2.72 4.34 0 4 C0 2.68 0 1.36 0 0 Z M14.21484375 6.0234375 C13.81394531 6.67570313 13.41304687 7.32796875 13 8 C14.58294782 8.05437607 16.16644256 8.09296271 17.75 8.125 C18.63171875 8.14820313 19.5134375 8.17140625 20.421875 8.1953125 C23.1135858 7.99139502 24.69904974 7.36551721 27 6 C24.59653621 3.59653621 23.86099805 3.67916253 20.5625 3.625 C19.38880859 3.58246094 19.38880859 3.58246094 18.19140625 3.5390625 C15.80682214 3.81269391 15.80682214 3.81269391 14.21484375 6.0234375 Z " fill="#00559E" transform="translate(654,125)"/>
<path d="M0 0 C1.32 0 2.64 0 4 0 C4 13.2 4 26.4 4 40 C-1.625 42.25 -1.625 42.25 -6 41 C-6.33 39.35 -6.66 37.7 -7 36 C-5.02 36 -3.04 36 -1 36 C-0.67 24.12 -0.34 12.24 0 0 Z " fill="#00559E" transform="translate(736,96)"/>
<path d="M0 0 C10.23 0 20.46 0 31 0 C31 1.32 31 2.64 31 4 C20.77 4 10.54 4 0 4 C0 2.68 0 1.36 0 0 Z " fill="#00559E" transform="translate(665,74)"/>
<path d="M0 0 C1.32 0 2.64 0 4 0 C4 8.58 4 17.16 4 26 C2.68 26 1.36 26 0 26 C0 17.42 0 8.84 0 0 Z " fill="#00559E" transform="translate(728,100)"/>
<path d="M0 0 C10.23 0 20.46 0 31 0 C31 0.99 31 1.98 31 3 C20.77 3 10.54 3 0 3 C0 2.01 0 1.02 0 0 Z " fill="#00559E" transform="translate(659,120)"/>
</svg>
